<svg width="133" height="16" viewBox="0 0 133 16" fill="none" xmlns="http://www.w3.org/2000/svg">
<g clip-path="url(#clip0_7443_410)">
<path fill-rule="evenodd" clip-rule="evenodd" d="M122.575 15.2539V0.768011H126.342V12.2053H132.343V15.2539H122.575ZM107.564 0.768011H111.331V12.2053H117.333V15.2539H107.564V0.768011ZM91.0926 0.768011H101.519V3.71414H94.7068V6.45548H101.147V9.25868H94.7068V12.2667H101.913V15.2539H91.0926V0.768011ZM78.5867 15.2539L75.5199 5.45388H75.4542L72.3879 15.2539H68.6643L64.2618 0.768011H68.292L70.7451 10.4048H70.8108L73.5711 0.768011H77.4692L80.251 10.4048H80.3168L82.8135 0.768011H86.7122L82.2877 15.2539H78.5867ZM56.0264 15.2539H52.2807V3.75574H47.9003V0.768011H60.4067V3.75574H56.0264V15.2539ZM39.2461 0.768011H43.0134V15.2539H39.2461V0.768011ZM29.6159 15.2539L26.2492 9.50454H24.9726V15.2539H21.3147V0.768011H27.2285C27.9731 0.768011 28.6995 0.839478 29.4077 0.982411C30.1158 1.12588 30.7511 1.36801 31.3134 1.70881C31.8707 2.0451 32.3334 2.50893 32.6607 3.05921C32.9959 3.61868 33.1644 4.31414 33.1644 5.14668C33.1644 6.12908 32.8799 6.95361 32.3099 7.62188C31.7404 8.29121 30.9521 8.76801 29.9446 9.05441L33.9969 15.2539H29.6159ZM29.2315 4.37921C29.08 4.16936 28.8754 4.00044 28.6371 3.88854C28.3806 3.76833 28.1056 3.68874 27.8229 3.65281C27.5349 3.61292 27.2444 3.5926 26.9535 3.59201H24.9505V6.96748H26.7331C27.0413 6.96748 27.3572 6.94294 27.6804 6.89601C27.9852 6.85322 28.2818 6.76694 28.5603 6.64001C28.8244 6.51681 29.0409 6.34028 29.2094 6.10774C29.3779 5.87574 29.4629 5.57601 29.4629 5.20801C29.4629 4.86668 29.3856 4.59094 29.2315 4.37921ZM8.74753 15.6224C7.50633 15.6224 6.36345 15.4379 5.31945 15.0693C4.27545 14.7013 3.37728 14.1829 2.62549 13.5147C1.87315 12.8464 1.28597 12.0453 0.862289 11.1104C0.438613 10.1771 0.227051 9.13654 0.227051 7.99094C0.227051 6.83148 0.442479 5.78028 0.873336 4.83948C1.30364 3.89814 1.89911 3.09761 2.65808 2.43521C3.4176 1.77388 4.30859 1.26614 5.3305 0.911478C6.3524 0.556811 7.45551 0.379211 8.63816 0.379211C9.86444 0.379211 11.0035 0.553611 12.0546 0.900811C13.1064 1.24854 13.9598 1.71574 14.6177 2.30294L12.2518 4.81868C11.8867 4.42348 11.4045 4.09974 10.8063 3.84748C10.2075 3.59468 9.52859 3.46881 8.76907 3.46881C8.11229 3.46881 7.50633 3.58134 6.95118 3.80588C6.40892 4.02306 5.91734 4.34316 5.5056 4.74721C5.09132 5.1579 4.76722 5.64516 4.55275 6.17974C4.32627 6.73228 4.21358 7.33548 4.21358 7.99094C4.21358 8.65921 4.31522 9.27254 4.52016 9.83148C4.72454 10.3915 5.02724 10.8725 5.42938 11.2741C5.8304 11.6768 6.32699 11.9909 6.91859 12.2155C7.51019 12.44 8.1852 12.5531 8.94473 12.5531C9.38277 12.5531 9.79871 12.5221 10.1931 12.4613C10.5691 12.4043 10.9368 12.3046 11.2885 12.1643V9.52481H8.33103V6.70188H14.7271V14.3744C13.9675 14.7424 13.0804 15.0427 12.0657 15.2741C11.0504 15.5061 9.94454 15.6224 8.74753 15.6224Z" fill="#067356"/>
</g>
<defs>
<clipPath id="clip0_7443_410">
<rect width="132.571" height="16" fill="white"/>
</clipPath>
</defs>
</svg>

